<svg aria-hidden="true" style="position:absolute;width:0;height:0;overflow:hidden" xmlns="http://www.w3.org/2000/svg">
  <defs>
    <symbol id="icon-facebook" viewBox="0 0 32 32">
      <path stroke-linejoin="round" stroke-linecap="round" stroke-width="2.4" d="M24 2.666h-4a6.67 6.67 0 0 0-6.667 6.667v4h-4v5.333h4v10.667h5.333V18.666h4l1.333-5.333h-5.333v-4A1.335 1.335 0 0 1 20 7.999h4V2.666z"/>
    </symbol>
    <symbol id="icon-instagram" viewBox="0 0 32 32">
      <path stroke-linejoin="round" stroke-linecap="round" stroke-width="2.4" d="M22.666 2.666H9.333a6.667 6.667 0 0 0-6.667 6.667v13.333a6.667 6.667 0 0 0 6.667 6.667h13.333a6.667 6.667 0 0 0 6.667-6.667V9.333a6.667 6.667 0 0 0-6.667-6.667z"/>
      <path stroke-linejoin="round" stroke-linecap="round" stroke-width="2.4" d="M21.333 15.16a5.336 5.336 0 0 1-6.123 6.049 5.334 5.334 0 0 1-3.916-7.663 5.338 5.338 0 0 1 5.547-2.878 5.334 5.334 0 0 1 4.493 4.493zM23.334 8.666h.016"/>
    </symbol>
    <symbol id="icon-twitter" viewBox="0 0 32 32">
      <path stroke-linejoin="round" stroke-linecap="round" stroke-width="2.4" d="M30.667 4a14.53 14.53 0 0 1-4.187 2.04 5.975 5.975 0 0 0-6.637-1.661A5.979 5.979 0 0 0 16 10.04v1.333c-2.343.061-4.665-.459-6.759-1.513S4.68 6.297 3.333 4.379c0 0-4.667 12.954 7.333 18.287a15.519 15.519 0 0 1-9.333 2.667C13.333 32 28 25.333 28 10a5.966 5.966 0 0 0-.107-1.107A10.288 10.288 0 0 0 30.666 4z"/>
    </symbol>
    <symbol id="icon-chocolate-icon" viewBox="0 0 32 32">
      <path fill="#fcf1e0" style="fill:var(--color1, #fcf1e0)" d="M3.944 20.076 14.721 2.652l.64-.674 8.236 5.491.056 3.314 2.01 3.28-8.88 14.077-12.839-8.063z"/>
      <path fill="none" stroke="#fd9222" style="stroke:var(--color2, #fd9222)" stroke-linejoin="round" stroke-linecap="round" stroke-width="2.667" d="M21.635 23.88 7.45 15.016m3.911-6.417 14.186 8.864M10.63 25.864l11.736-19.25m4.81 8.175c-3.04-1.899-4.234-3.384-2.278-6.592l-9.626-6.015-11.736 19.25 14.185 8.864 9.454-15.507z"/>
    </symbol>
    <symbol id="icon-code" viewBox="0 0 32 32">
      <path d="M12.626 22.425a.528.528 0 0 1-.342-.126l-3.419-2.911a.527.527 0 0 1 0-.804l3.419-2.911a.529.529 0 0 1 .685.805l-2.946 2.509 2.946 2.509a.529.529 0 0 1-.343.931zM19.374 22.425a.529.529 0 0 1-.342-.931l2.946-2.509-2.946-2.509a.529.529 0 0 1 .684-.805l3.419 2.911a.527.527 0 0 1 0 .804l-3.419 2.911a.523.523 0 0 1-.342.126zM14.79 24.609a.529.529 0 0 1-.518-.638l2.131-10.116a.529.529 0 0 1 1.034.218l-2.131 10.116a.528.528 0 0 1-.516.42z"/>
      <path d="M28.453 30.12H3.547A3.55 3.55 0 0 1 0 26.573V5.434a3.55 3.55 0 0 1 3.547-3.547h24.906A3.55 3.55 0 0 1 32 5.434v21.139a3.55 3.55 0 0 1-3.547 3.547zM3.547 2.944a2.494 2.494 0 0 0-2.491 2.491v21.139a2.494 2.494 0 0 0 2.491 2.491h24.906a2.494 2.494 0 0 0 2.491-2.491V5.435a2.494 2.494 0 0 0-2.491-2.491H3.547z"/>
      <path d="M31.472 10.346H.529a.527.527 0 1 1 0-1.056h30.943a.528.528 0 0 1 0 1.056zM9.026 7.818c-.922 0-1.672-.75-1.672-1.672s.75-1.672 1.672-1.672c.922 0 1.672.75 1.672 1.672s-.75 1.672-1.672 1.672zm0-2.287a.616.616 0 1 0 .002 1.232.616.616 0 0 0-.002-1.232zM3.891 7.802c-.922 0-1.672-.75-1.672-1.672s.75-1.672 1.672-1.672c.922 0 1.672.75 1.672 1.672s-.75 1.672-1.672 1.672zm0-2.287a.616.616 0 1 0 .002 1.232.616.616 0 0 0-.002-1.232zM14.163 7.834c-.921 0-1.672-.75-1.672-1.672s.75-1.672 1.672-1.672c.922 0 1.672.75 1.672 1.672s-.75 1.672-1.672 1.672zm0-2.287a.616.616 0 1 0 .002 1.232.616.616 0 0 0-.002-1.232z"/>
    </symbol>
    <symbol id="icon-envelope" viewBox="0 0 32 32">
      <path d="M28.094 3.823H3.913A3.917 3.917 0 0 0 0 7.738v16.525a3.917 3.917 0 0 0 3.913 3.915h24.175a3.917 3.917 0 0 0 3.913-3.917V7.736a3.913 3.913 0 0 0-3.906-3.913zm2.125 20.439a2.129 2.129 0 0 1-2.125 2.127H3.913a2.127 2.127 0 0 1-2.125-2.127V7.744c0-1.173.954-2.127 2.125-2.127h24.175c1.173 0 2.125.954 2.125 2.127v16.518h.006z"/>
      <path d="m20.181 15.795 7.827-7.019a.897.897 0 0 0 .063-1.266l.001.001a.897.897 0 0 0-1.264-.065l.001-.001-10.795 9.685-2.103-1.877c-.006-.009-.013-.015-.013-.021a1.443 1.443 0 0 0-.144-.126l-.003-.002-8.567-7.663a.889.889 0 0 0-1.265.072l-.001.001a.892.892 0 0 0 .074 1.265l.001.001 7.919 7.078-7.887 7.381A.897.897 0 1 0 5.25 24.55l8.006-7.488 2.172 1.939a.89.89 0 0 0 1.192-.007l-.001.001 2.231-2.001 7.957 7.563a.886.886 0 0 0 1.267-.033.892.892 0 0 0-.033-1.262l-7.859-7.465z"/>
    </symbol>
    <symbol id="icon-group" viewBox="0 0 32 32">
      <path d="M31.466 0h-24a.533.533 0 0 0-.533.533v8H8V1.066h22.933v29.333a.525.525 0 0 1-.491.533c-.046 0-.092-.004-.138-.005-.094-.003-.189-.005-.282-.014-.008 0-.015 0-.023-.003a3.738 3.738 0 0 1-3.31-3.307c0-.008-.003-.016-.004-.023a3.738 3.738 0 0 1-.019-.381v-1.067a.533.533 0 0 0-.533-.533H8v-9.6H6.933v9.6H2.666a.533.533 0 0 0-.533.533v1.067a4.805 4.805 0 0 0 4.8 4.8h23.52a1.589 1.589 0 0 0 1.547-1.6V.532a.533.533 0 0 0-.533-.533zM6.933 30.933A3.736 3.736 0 0 1 3.2 27.2v-.533h22.4v.533c.001.176.011.352.03.526.005.046.014.091.02.137.018.129.039.258.067.384l.033.132c.032.129.069.255.112.38l.038.107c.048.132.103.261.164.389l.037.077a4.6 4.6 0 0 0 .22.394l.031.053c.087.136.181.268.281.395l.017.023c.116.146.241.286.373.418.115.114.234.22.357.32l-20.449-.002z"/>
      <path d="M17.6 14.933a.534.534 0 0 0 .377-.156l2.133-2.133a.534.534 0 0 0 0-.754l-2.133-2.133a.534.534 0 0 0-.377-.156H2.667a2.667 2.667 0 1 0 0 5.334H17.6zm-.138-4.183 1.517 1.517-1.517 1.517-.379-1.517.379-1.517zm-13.195-.083h12.117l-.267 1.067H5.333v1.067h10.784l.267 1.067H4.267v-3.2zm-3.2 1.6a1.6 1.6 0 0 1 1.6-1.6H3.2v3.2h-.533a1.6 1.6 0 0 1-1.6-1.6zM12.266 22.933h16a.533.533 0 0 0 .533-.533v-16a.533.533 0 0 0-.911-.377l-16 16a.534.534 0 0 0 .377.91zM27.733 7.687v1.379h-1.067v1.067h1.067V11.2h-1.067v1.067h1.067v1.067h-1.067v1.067h1.067v1.067h-1.067v1.067h1.067v1.067h-1.067v1.067h1.067v1.067h-1.067v1.067h1.067v1.067h-1.067v-1.067h-1.067v1.067h-1.067v-1.067h-1.067v1.067h-1.067v-1.067h-1.067v1.067h-1.067v-1.067h-1.067v1.067H18.13v-1.067h-1.067v1.067h-1.067v-1.067h-1.067v1.067H13.55L27.729 7.691z"/>
      <path d="M19.993 19.733h5.075a.533.533 0 0 0 .533-.533v-5.075a.533.533 0 0 0-.91-.377l-5.075 5.075a.534.534 0 0 0 .377.91zm4.541-4.32v3.253h-3.253l3.253-3.253zM24.534 3.2H13.867v1.067h10.667V3.2zM26.134 5.333H12.267V6.4h13.867V5.333zM12.267 16.533h-3.2V17.6h3.2v-1.067zM11.2 18.667H9.067v1.067H11.2v-1.067z"/>
    </symbol>
    <symbol id="icon-phone" viewBox="0 0 32 32">
      <path d="m31.159 24.687-6.477-4.32a1.887 1.887 0 0 0-2.527.408l-.003.004-1.888 2.426a.807.807 0 0 1-1.037.215l.004.002-.361-.198c-1.188-.649-2.669-1.455-5.653-4.437-2.98-2.987-3.789-4.467-4.437-5.653l-.198-.361a.808.808 0 0 1 .211-1.036l.002-.001 2.426-1.886a1.893 1.893 0 0 0 .407-2.539l.004.007L7.312.841A1.882 1.882 0 0 0 4.769.276l.008-.005-2.709 1.626A3.833 3.833 0 0 0 .334 4.131l-.007.027C-.65 7.712.084 13.845 9.118 22.88 16.305 30.067 21.656 32 25.331 32h.036c.879 0 1.73-.12 2.537-.344l-.066.016a3.84 3.84 0 0 0 2.252-1.723l.01-.017 1.63-2.709a1.879 1.879 0 0 0-.565-2.53l-.007-.004zm-.347 1.988-1.626 2.709a2.74 2.74 0 0 1-1.626 1.259c-3.281.902-9.011.156-17.685-8.516C1.201 13.453.456 7.723 1.357 4.442a2.759 2.759 0 0 1 1.261-1.63l2.709-1.623a.816.816 0 0 1 1.099.242l.002.003 2.347 3.524 1.969 2.953a.817.817 0 0 1-.177 1.097l-.002.001-2.423 1.886a1.864 1.864 0 0 0-.49 2.405l-.005-.009.192.35c.683 1.25 1.53 2.805 4.623 5.899s4.646 3.94 5.897 4.621l.35.192a1.866 1.866 0 0 0 2.393-.488l.003-.004 1.886-2.426a.819.819 0 0 1 1.101-.175l-.003-.002 6.477 4.32a.813.813 0 0 1 .247 1.099zM18.133 5.335a9.076 9.076 0 0 1 9.067 9.066.533.533 0 1 0 1.066 0c-.005-5.595-4.539-10.129-10.133-10.135h-.001a.533.533 0 1 0 0 1.066z"/>
      <path d="M18.133 8.535A5.874 5.874 0 0 1 24 14.401a.533.533 0 1 0 1.066 0 6.939 6.939 0 0 0-6.933-6.935.533.533 0 1 0 0 1.066z"/>
      <path d="M18.133 11.735a2.67 2.67 0 0 1 2.667 2.667.533.533 0 1 0 1.066 0 3.737 3.737 0 0 0-3.733-3.735.533.533 0 1 0 0 1.066z"/>
    </symbol>
    <symbol id="icon-placeholder" viewBox="0 0 32 32">
      <path d="M15.979 0C9.505.007 4.258 5.253 4.25 11.726v.001c0 2.972 1.873 7.168 5.564 12.476a83.81 83.81 0 0 0 5.55 7.107l-.085-.099.7.789.7-.789a82.93 82.93 0 0 0 5.286-6.743l.177-.265c3.691-5.308 5.564-9.504 5.564-12.476C27.697 5.254 22.452.009 15.98 0h-.001zm4.638 23.119a84.697 84.697 0 0 1-4.741 6.16l.103-.125a83.574 83.574 0 0 1-4.451-5.754l-.178-.266c-3.42-4.915-5.227-8.862-5.227-11.407.007-5.44 4.416-9.849 9.855-9.856h.001c5.44.007 9.849 4.416 9.856 9.855v.001c0 2.543-1.805 6.483-5.218 11.392z"/>
      <path d="M15.977 4.335a6.93 6.93 0 0 0-6.923 6.92 6.93 6.93 0 0 0 6.925 6.923 6.93 6.93 0 0 0 6.921-6.922 6.93 6.93 0 0 0-6.92-6.921zm0 11.972a5.056 5.056 0 0 1-5.054-5.052 5.056 5.056 0 0 1 5.056-5.047 5.057 5.057 0 0 1 5.05 5.049 5.057 5.057 0 0 1-5.049 5.05z"/>
    </symbol>
    <symbol id="icon-right-arrow" viewBox="0 0 32 32">
      <path d="M10.022 30.09a.988.988 0 0 1-.708.298H9.304a1.018 1.018 0 0 1-.719-1.738L21.235 16 8.585 3.35a1.018 1.018 0 0 1 1.44-1.44l13.366 13.37a1.017 1.017 0 0 1 0 1.44l-13.37 13.37z"/>
    </symbol>
    <symbol id="icon-menu-btn" viewBox="0 0 32 32">
<path stroke-linejoin="round" stroke-linecap="round" stroke-miterlimit="4" stroke-width="2.2857" d="M4 16h24M4 8h24M4 24h24"></path>
</symbol>
<symbol id="icon-arrow-down" viewBox="0 0 32 32">
<path d="M16.946 17.866c-0.242 0.244-0.577 0.395-0.947 0.395s-0.705-0.151-0.947-0.395l-0-0-6.106-6.12c-0.242-0.244-0.577-0.394-0.947-0.394-0.737 0-1.334 0.597-1.334 1.334 0 0.367 0.148 0.699 0.387 0.94l6.12 6.12c0.724 0.723 1.723 1.17 2.827 1.17s2.103-0.447 2.827-1.17l6.12-6.12c0.239-0.241 0.387-0.573 0.387-0.94 0-0.737-0.597-1.334-1.334-1.334-0.37 0-0.705 0.151-0.947 0.394l-0 0-6.106 6.12z"></path>
</symbol>
<symbol id="icon-choco" viewBox="0 0 32 32">
<path d="M13.822 2.413l7.527 7.536 0.080-0.080c0.154-0.151 0.366-0.244 0.599-0.244 0.227 0 0.433 0.088 0.586 0.232l-0-0 0.873 0.873c0.305 0.305 0.315 0.77 0.083 1.094l-0.004 0.007-0.143 0.192 6.16 6.16c0.55 0.55 0.55 1.43 0 1.98l-9.43 9.43c-0.55 0.55-1.43 0.55-1.98 0l-4.447-4.447c-0.155 0.195-0.393 0.319-0.659 0.319-0.233 0-0.444-0.095-0.596-0.248l-2.6-2.6c-0.151-0.154-0.244-0.366-0.244-0.599 0-0.227 0.088-0.433 0.232-0.586l-0 0 0.006-0.007 0.077-0.076-7.527-7.527c-0.55-0.55-0.55-1.43 0-1.98l9.43-9.43c0.55-0.55 1.43-0.55 1.98 0v0.001zM20.404 10.893l-1.756-1.755c-0.108-0.111-0.258-0.18-0.425-0.18s-0.317 0.069-0.425 0.18l-3.58 3.58c-0.111 0.11-0.179 0.262-0.179 0.43s0.068 0.32 0.179 0.43l1.749 1.749 0.61-0.61-1.565-1.565 3.21-3.22 1.569 1.574 0.613-0.613zM15.328 15.965l-1.754-1.754c-0.108-0.111-0.258-0.18-0.425-0.18s-0.317 0.069-0.425 0.18l-3.59 3.59c-0.24 0.23-0.24 0.61 0 0.85l1.752 1.752 0.616-0.616-1.57-1.564 3.22-3.21 1.564 1.563 0.612-0.611zM8.822 8.193l3.58 3.58c0.24 0.24 0.62 0.24 0.85-0.010l3.58-3.58c0.111-0.106 0.18-0.255 0.18-0.42 0-0 0-0 0-0v0h0.010c0-0.15-0.060-0.31-0.18-0.43l-3.58-3.58c-0.11-0.111-0.262-0.18-0.43-0.18s-0.32 0.069-0.43 0.18l-0 0-3.58 3.59c-0.24 0.23-0.24 0.61 0 0.85zM3.752 13.263l3.58 3.58c0.24 0.24 0.62 0.24 0.85 0l3.58-3.58c0.111-0.106 0.18-0.255 0.18-0.42 0-0.004-0-0.007-0-0.010v0.001h0.010c0-0.16-0.060-0.31-0.18-0.43l-3.58-3.58c-0.108-0.111-0.258-0.18-0.425-0.18s-0.317 0.069-0.425 0.18l-3.59 3.59c-0.24 0.23-0.24 0.61 0 0.85zM10.685 22.017l2.362 2.363 9.636-13.040-0.655-0.655-11.343 11.332z"></path>
<path d="M13.822 2.413l7.527 7.536 0.080-0.080c0.154-0.151 0.366-0.244 0.599-0.244 0.227 0 0.433 0.088 0.586 0.232l-0-0 0.873 0.873c0.305 0.305 0.315 0.77 0.083 1.094l-0.004 0.007-0.143 0.192 6.16 6.16c0.55 0.55 0.55 1.43 0 1.98l-9.43 9.43c-0.55 0.55-1.43 0.55-1.98 0l-4.447-4.447c-0.155 0.195-0.393 0.319-0.659 0.319-0.233 0-0.444-0.095-0.596-0.248l-2.6-2.6c-0.151-0.154-0.244-0.366-0.244-0.599 0-0.227 0.088-0.433 0.232-0.586l-0 0 0.006-0.007 0.077-0.076-7.527-7.527c-0.55-0.55-0.55-1.43 0-1.98l9.43-9.43c0.55-0.55 1.43-0.55 1.98 0v0.001zM20.404 10.893l-1.756-1.755c-0.108-0.111-0.258-0.18-0.425-0.18s-0.317 0.069-0.425 0.18l-3.58 3.58c-0.111 0.11-0.179 0.262-0.179 0.43s0.068 0.32 0.179 0.43l1.749 1.749 0.61-0.61-1.565-1.565 3.21-3.22 1.569 1.574 0.613-0.613zM15.328 15.965l-1.754-1.754c-0.108-0.111-0.258-0.18-0.425-0.18s-0.317 0.069-0.425 0.18l-3.59 3.59c-0.24 0.23-0.24 0.61 0 0.85l1.752 1.752 0.616-0.616-1.57-1.564 3.22-3.21 1.564 1.563 0.612-0.611zM8.822 8.193l3.58 3.58c0.24 0.24 0.62 0.24 0.85-0.010l3.58-3.58c0.111-0.106 0.18-0.255 0.18-0.42 0-0 0-0 0-0v0h0.010c0-0.15-0.060-0.31-0.18-0.43l-3.58-3.58c-0.11-0.111-0.262-0.18-0.43-0.18s-0.32 0.069-0.43 0.18l-0 0-3.58 3.59c-0.24 0.23-0.24 0.61 0 0.85zM3.752 13.263l3.58 3.58c0.24 0.24 0.62 0.24 0.85 0l3.58-3.58c0.111-0.106 0.18-0.255 0.18-0.42 0-0.004-0-0.007-0-0.010v0.001h0.010c0-0.16-0.060-0.31-0.18-0.43l-3.58-3.58c-0.108-0.111-0.258-0.18-0.425-0.18s-0.317 0.069-0.425 0.18l-3.59 3.59c-0.24 0.23-0.24 0.61 0 0.85zM10.685 22.017l2.362 2.363 9.636-13.040-0.655-0.655-11.343 11.332z"></path>
</symbol>
<symbol id="icon-dollar" viewBox="0 0 32 32">
<path d="M16 0.762c-8.381 0-15.238 6.857-15.238 15.238s6.857 15.238 15.238 15.238 15.238-6.857 15.238-15.238-6.857-15.238-15.238-15.238zM16 28.191c-6.705 0-12.191-5.486-12.191-12.191s5.486-12.191 12.191-12.191c6.704 0 12.19 5.486 12.19 12.191s-5.486 12.191-12.19 12.191z"></path>
<path d="M17.981 14.477h-3.961c-0.762 0-1.371-0.61-1.371-1.371 0-0.762 0.609-1.371 1.371-1.371h5.638c0.914 0 1.523-0.61 1.523-1.525s-0.609-1.523-1.523-1.523h-2.134v-1.371c0-0.914-0.609-1.523-1.523-1.523s-1.523 0.609-1.523 1.523v1.371h-0.457c-2.44 0.002-4.417 1.979-4.419 4.419v0c0.003 2.439 1.98 4.416 4.419 4.418h3.809c0.762 0 1.371 0.61 1.371 1.371 0 0.762-0.609 1.371-1.371 1.371h-5.638c-0.914 0-1.525 0.61-1.525 1.525s0.61 1.523 1.525 1.523h2.286v1.371c0 0.914 0.609 1.523 1.523 1.523s1.523-0.609 1.523-1.523v-1.371h0.457c2.44-0.002 4.417-1.979 4.419-4.419v-0c-0.003-2.439-1.98-4.416-4.419-4.418h-0z"></path>
</symbol>
<symbol id="icon-spoon" viewBox="0 0 32 32">
<path d="M15.451 14.106c-0.732-0.884-1.176-2.029-1.176-3.278 0-0.001 0-0.003 0-0.004v0c0-4.324 5.18-8.642 10.362-8.642 2.861 0.001 5.18 2.321 5.181 5.182v0c0 5.182-4.318 10.364-8.646 10.364-0.001 0-0.002 0-0.003 0-1.249 0-2.395-0.444-3.287-1.184l0.009 0.007-12.759 12.761c-0.307 0.283-0.719 0.457-1.171 0.457-0.955 0-1.73-0.775-1.73-1.73 0-0.453 0.174-0.865 0.459-1.173l-0.001 0.001 12.762-12.761z"></path>
</symbol>
<symbol id="icon-long-arrow" viewBox="0 0 32 32">
<path stroke-linejoin="round" stroke-linecap="round" stroke-miterlimit="4" stroke-width="1.3333" d="M9.143 16h13.715M22.857 16l-3.431-3.428M22.857 16l-3.429 3.428M16 30.857c8.205 0 14.857-6.652 14.857-14.857s-6.653-14.857-14.857-14.857c-8.205 0-14.857 6.652-14.857 14.857s6.652 14.857 14.857 14.857z"></path>
</symbol>
<symbol id="icon-dot-mark" viewBox="0 0 32 32">
<path fill="#4c4c4c" style="fill: var(--color1, #4c4c4c); stroke: var(--color2, #eceded)" stroke="#eceded" stroke-linejoin="miter" stroke-linecap="butt" stroke-miterlimit="4" stroke-width="4" d="M30 16c0 7.732-6.268 14-14 14s-14-6.268-14-14c0-7.732 6.268-14 14-14s14 6.268 14 14z"></path>
</symbol>
<symbol id="icon-close-btn" viewBox="0 0 32 32">
<path stroke-linejoin="round" stroke-linecap="round" stroke-miterlimit="4" stroke-width="2.2857" d="M22.666 9.334l-13.333 13.333M9.334 9.334l13.333 13.333"></path>
</symbol>
  </defs>
</svg>
